<svg width="30" height="17" viewBox="0 0 30 17" fill="none" xmlns="http://www.w3.org/2000/svg">
<path d="M10.7622 6.82971C11.0165 6.82971 11.2707 6.82971 11.5327 6.82971C11.5907 7.12546 11.6453 7.42141 11.6953 7.71861C11.7034 7.76644 11.7034 7.76644 11.7116 7.81523C11.7338 7.94756 11.756 8.07989 11.7781 8.21225C11.7892 8.27866 11.8003 8.34506 11.8115 8.41146C11.8219 8.47338 11.8323 8.53531 11.8425 8.59726C11.8472 8.62481 11.8518 8.65236 11.8566 8.68075C11.8607 8.70506 11.8647 8.72938 11.8689 8.75443C11.8753 8.80842 11.8753 8.80842 11.9055 8.83408C11.9123 8.81006 11.9191 8.78605 11.9261 8.7613C11.9901 8.53518 12.0541 8.30906 12.1181 8.08295C12.151 7.9667 12.184 7.85045 12.2169 7.73419C12.2486 7.62203 12.2803 7.50988 12.3121 7.39774C12.3242 7.35491 12.3363 7.31208 12.3485 7.26925C12.3654 7.20935 12.3824 7.14945 12.3993 7.08956C12.4044 7.07177 12.4094 7.05399 12.4146 7.03567C12.4342 6.9665 12.4544 6.89792 12.4772 6.82971C12.7069 6.82971 12.9365 6.82971 13.1731 6.82971C13.2192 6.95206 13.2612 7.06699 13.2965 7.1916C13.3052 7.22249 13.314 7.25339 13.3231 7.28522C13.3324 7.31839 13.3418 7.35156 13.3511 7.38474C13.3609 7.41937 13.3707 7.454 13.3805 7.48863C13.401 7.56095 13.4214 7.63329 13.4417 7.70564C13.4677 7.79774 13.4938 7.8898 13.5199 7.98184C13.5401 8.05328 13.5603 8.12475 13.5805 8.19622C13.59 8.23014 13.5996 8.26406 13.6093 8.29796C13.662 8.48379 13.711 8.6686 13.7448 8.85882C13.7612 8.85882 13.7776 8.85882 13.7945 8.85882C13.796 8.8365 13.796 8.8365 13.7976 8.81373C13.8145 8.59881 13.8504 8.38793 13.887 8.17572C13.8937 8.13672 13.9004 8.09772 13.907 8.05871C13.9244 7.95696 13.9418 7.85523 13.9593 7.7535C13.9804 7.63095 14.0013 7.50838 14.0222 7.38582C14.0539 7.20043 14.0858 7.01507 14.1176 6.82971C14.3801 6.82971 14.6426 6.82971 14.913 6.82971C14.8811 7.03596 14.8478 7.24011 14.8074 7.4446C14.8021 7.47192 14.7968 7.49924 14.7913 7.52739C14.7738 7.61644 14.7563 7.70546 14.7388 7.79449C14.7266 7.85672 14.7144 7.91895 14.7022 7.98118C14.6736 8.12745 14.6449 8.2737 14.6162 8.41995C14.5834 8.58667 14.5507 8.7534 14.5181 8.92014C14.4509 9.26265 14.3837 9.60514 14.3165 9.94762C14.0376 9.94762 13.7587 9.94762 13.4714 9.94762C13.419 9.82591 13.3749 9.71092 13.3386 9.58476C13.3333 9.56667 13.328 9.54859 13.3225 9.52995C13.3111 9.49103 13.2998 9.45209 13.2884 9.41314C13.2706 9.35155 13.2526 9.29001 13.2345 9.22847C13.2028 9.12021 13.1712 9.01192 13.1397 8.90362C13.089 8.72976 13.0383 8.55592 12.9874 8.38213C12.9696 8.32138 12.952 8.2606 12.9343 8.19982C12.9235 8.16286 12.9127 8.12589 12.9019 8.08893C12.897 8.07194 12.892 8.05494 12.887 8.03744C12.8683 7.95915 12.8683 7.95915 12.8252 7.89376C12.8178 7.91876 12.8103 7.94376 12.8027 7.96952C12.7329 8.20476 12.663 8.43999 12.5931 8.67521C12.5572 8.79614 12.5213 8.91708 12.4854 9.03803C12.4508 9.15469 12.4161 9.27133 12.3814 9.38796C12.3682 9.43254 12.355 9.47711 12.3418 9.52169C12.3233 9.58398 12.3048 9.64625 12.2862 9.70851C12.2807 9.72708 12.2753 9.74564 12.2696 9.76477C12.2315 9.89248 12.2315 9.89248 12.2038 9.94762C11.9249 9.94762 11.6461 9.94762 11.3587 9.94762C11.3104 9.75535 11.2652 9.56554 11.2278 9.37133C11.2227 9.34518 11.2176 9.31902 11.2123 9.29208C11.1957 9.20674 11.1792 9.12137 11.1627 9.036C11.1511 8.97625 11.1395 8.9165 11.1279 8.85675C11.1037 8.73207 11.0796 8.60738 11.0555 8.48268C11.0247 8.32284 10.9936 8.16304 10.9625 8.00324C10.9386 7.88011 10.9147 7.75696 10.8909 7.63381C10.8795 7.57485 10.8681 7.5159 10.8566 7.45696C10.8406 7.37478 10.8247 7.29258 10.8089 7.21037C10.8042 7.18606 10.7994 7.16175 10.7945 7.1367C10.7902 7.11427 10.7859 7.09183 10.7815 7.06872C10.7778 7.04933 10.774 7.02993 10.7702 7.00996C10.7622 6.95344 10.7622 6.95344 10.7622 6.82971Z" fill="#0C3973"/>
<path d="M2.01327 2.59827C2.29214 2.59827 2.57101 2.59827 2.85834 2.59827C2.99617 2.99714 3.11561 3.40096 3.23517 3.80552C3.27805 3.95059 3.32103 4.09563 3.36407 4.24065C3.379 4.291 3.39386 4.34137 3.40872 4.39174C3.41769 4.422 3.42666 4.45227 3.43591 4.48345C3.44773 4.52347 3.44773 4.52347 3.4598 4.5643C3.47754 4.62632 3.47754 4.62632 3.50457 4.67687C3.55623 4.50451 3.60789 4.33214 3.65954 4.15977C3.68355 4.07965 3.70756 3.99953 3.73158 3.91941C3.86354 3.47918 3.99497 3.03879 4.12594 2.59827C4.40482 2.59827 4.68369 2.59827 4.97101 2.59827C5.05379 2.99072 5.13397 3.38349 5.21073 3.77715C5.22114 3.83043 5.23155 3.88371 5.24196 3.937C5.26348 4.0472 5.28497 4.1574 5.30643 4.26761C5.33395 4.40885 5.36159 4.55006 5.38925 4.69127C5.41066 4.80063 5.43198 4.91 5.45328 5.01937C5.46345 5.07151 5.47365 5.12364 5.48388 5.17577C5.49806 5.24809 5.51212 5.32042 5.52616 5.39277C5.53038 5.41415 5.5346 5.43554 5.53895 5.45758C5.54274 5.47726 5.54653 5.49694 5.55044 5.51722C5.55542 5.54275 5.55542 5.54275 5.56051 5.5688C5.56754 5.61719 5.56754 5.61719 5.56754 5.71617C5.31327 5.71617 5.059 5.71617 4.79703 5.71617C4.76466 5.58725 4.73638 5.46506 4.71469 5.33485C4.71181 5.31772 4.70894 5.3006 4.70597 5.28295C4.69981 5.24619 4.69368 5.20943 4.68759 5.17266C4.67795 5.11452 4.6682 5.0564 4.65843 4.99828C4.63421 4.85417 4.61015 4.71003 4.58613 4.56589C4.56574 4.44358 4.54528 4.32128 4.5247 4.199C4.51508 4.14164 4.50558 4.08427 4.49607 4.02689C4.49021 3.99201 4.48435 3.95712 4.47847 3.92224C4.47083 3.8764 4.47083 3.8764 4.46304 3.82964C4.45615 3.7638 4.45615 3.7638 4.4242 3.73655C4.41741 3.76062 4.41061 3.78469 4.40361 3.80949C4.33966 4.03599 4.27566 4.26248 4.21161 4.48896C4.17868 4.6054 4.14576 4.72185 4.11289 4.83831C4.08119 4.95063 4.04944 5.06294 4.01765 5.17524C4.00551 5.21815 3.99339 5.26107 3.98129 5.30399C3.96438 5.36397 3.9474 5.42393 3.93041 5.48388C3.92288 5.51069 3.92288 5.51069 3.91519 5.53803C3.88023 5.66104 3.88023 5.66104 3.85254 5.71617C3.61468 5.71617 3.37681 5.71617 3.13174 5.71617C3.1006 5.60587 3.06946 5.49556 3.03737 5.38192C3.01744 5.31132 2.9975 5.24073 2.97757 5.17013C2.94604 5.0585 2.91451 4.94687 2.883 4.83524C2.85754 4.74506 2.83208 4.65489 2.80661 4.56472C2.79698 4.53061 2.78735 4.49651 2.77772 4.4624C2.76853 4.42985 2.75934 4.3973 2.75014 4.36475C2.73695 4.31802 2.72378 4.27127 2.71061 4.22453C2.69258 4.16132 2.67429 4.09826 2.65555 4.03526C2.64643 4.00438 2.63731 3.97349 2.62792 3.94168C2.61966 3.9141 2.61141 3.88653 2.6029 3.85812C2.58493 3.78604 2.58493 3.78604 2.58493 3.68706C2.56853 3.68706 2.55212 3.68706 2.53522 3.68706C2.53371 3.71211 2.53371 3.71211 2.53217 3.73767C2.51648 3.95847 2.48101 4.17422 2.4427 4.39191C2.43603 4.43032 2.42938 4.46873 2.42274 4.50715C2.40541 4.60724 2.38792 4.7073 2.3704 4.80736C2.34932 4.92796 2.32843 5.04859 2.3075 5.16922C2.27585 5.35156 2.24396 5.53386 2.21211 5.71617C1.94964 5.71617 1.68717 5.71617 1.41675 5.71617C1.52581 5.09303 1.64703 4.47241 1.76847 3.85157C1.79618 3.70988 1.82382 3.56817 1.85147 3.42646C1.90534 3.15038 1.95929 2.87432 2.01327 2.59827Z" fill="#88B9C5"/>
<path d="M7.43164 11.3333C7.6613 11.3333 7.89096 11.3333 8.12758 11.3333C8.29774 11.6272 8.46455 11.9222 8.6259 12.221C8.73681 12.4259 8.85116 12.6287 8.96706 12.8308C8.98607 12.864 8.98607 12.864 9.00547 12.8979C9.01656 12.9172 9.02765 12.9364 9.03907 12.9563C9.07687 13.0247 9.11159 13.0947 9.14664 13.1645C9.15484 12.5602 9.16304 11.9559 9.17149 11.3333C9.40935 11.3333 9.64722 11.3333 9.89229 11.3333C9.89229 12.3622 9.89229 13.3911 9.89229 14.4512C9.65442 14.4512 9.41656 14.4512 9.17149 14.4512C9.00376 14.1729 9.00376 14.1729 8.93479 14.0478C8.91163 14.006 8.91163 14.006 8.88801 13.9632C8.87169 13.9336 8.85537 13.904 8.83906 13.8743C8.82185 13.8432 8.80465 13.8121 8.78743 13.7809C8.75154 13.716 8.71567 13.651 8.67982 13.586C8.59727 13.4365 8.51458 13.287 8.43182 13.1375C8.40612 13.0911 8.38045 13.0446 8.35478 12.9982C8.33911 12.9699 8.32344 12.9415 8.30729 12.9124C8.29356 12.8875 8.27982 12.8627 8.26566 12.8371C8.22912 12.7723 8.19083 12.7085 8.15244 12.6448C8.14423 13.2409 8.13603 13.837 8.12758 14.4512C7.89792 14.4512 7.66826 14.4512 7.43164 14.4512C7.43164 13.4223 7.43164 12.3934 7.43164 11.3333Z" fill="#0C3973"/>
<path d="M4.49875 6.82971C4.72841 6.82971 4.95807 6.82971 5.19469 6.82971C5.36242 7.10803 5.36242 7.10803 5.43139 7.23308C5.44683 7.26101 5.46227 7.28893 5.47817 7.31771C5.49449 7.34733 5.51081 7.37696 5.52712 7.40659C5.54433 7.43773 5.56153 7.46887 5.57875 7.50001C5.61464 7.56496 5.65051 7.62992 5.68636 7.69489C5.76891 7.84446 5.8516 7.99395 5.93436 8.14341C5.96006 8.18984 5.98573 8.2363 6.0114 8.28275C6.02707 8.31107 6.04274 8.33938 6.05889 8.36856C6.07263 8.39341 6.08636 8.41826 6.10052 8.44386C6.13706 8.50863 6.17535 8.57241 6.21374 8.63612C6.22195 8.04 6.23015 7.44389 6.2386 6.82971C6.47646 6.82971 6.71432 6.82971 6.95939 6.82971C6.95939 7.85862 6.95939 8.88753 6.95939 9.94762C6.72153 9.94762 6.48367 9.94762 6.2386 9.94762C6.05887 9.63301 5.8813 9.31767 5.70881 8.99907C5.58908 8.77802 5.46682 8.55844 5.34382 8.33917C5.2823 8.22893 5.2823 8.22893 5.21954 8.11647C5.21134 8.72075 5.20314 9.32502 5.19469 9.94762C4.96503 9.94762 4.73537 9.94762 4.49875 9.94762C4.49875 8.91871 4.49875 7.8898 4.49875 6.82971Z" fill="#0C3973"/>
<path d="M25.2216 7.11117C25.4984 7.33894 25.6792 7.57095 25.7747 7.91848C25.6681 7.92402 25.5617 7.92805 25.455 7.93072C25.4188 7.93183 25.3826 7.93335 25.3465 7.93528C25.0454 7.95099 25.0454 7.95099 24.9431 7.87042C24.8996 7.81413 24.8652 7.75753 24.8302 7.69578C24.6714 7.5213 24.4655 7.48399 24.2398 7.47152C24.0546 7.47507 23.9073 7.53894 23.7562 7.64174C23.7117 7.67103 23.7117 7.67103 23.6595 7.69336C23.5997 7.72775 23.5896 7.75701 23.5626 7.8195C23.5449 7.84773 23.5449 7.84773 23.5268 7.87653C23.3826 8.11275 23.328 8.37049 23.3914 8.64286C23.4804 8.91549 23.6086 9.11962 23.867 9.25164C24.0938 9.35749 24.3649 9.3688 24.6049 9.29185C24.8359 9.19349 24.9425 9.05587 25.0539 8.83406C24.7996 8.82589 24.5453 8.81773 24.2834 8.80931C24.2834 8.63783 24.2834 8.46634 24.2834 8.28966C24.8001 8.28966 25.3168 8.28966 25.8492 8.28966C25.8492 8.79659 25.7378 9.19372 25.3738 9.55853C25.0087 9.90321 24.6074 10.0087 24.1154 10.0022C23.6809 9.98971 23.3329 9.78319 23.0406 9.47744C22.7565 9.16815 22.6185 8.7804 22.6181 8.3639C22.6395 7.99698 22.7537 7.69739 22.966 7.39883C22.984 7.37331 23.0019 7.3478 23.0204 7.3215C23.5743 6.69802 24.5639 6.61919 25.2216 7.11117Z" fill="#0C3973"/>
<path d="M9.93871 7.10074C10.2359 7.32916 10.4744 7.64924 10.5634 8.01747C10.5679 8.03473 10.5724 8.05199 10.5771 8.06977C10.6502 8.53773 10.5572 8.96526 10.2874 9.35507C10.0261 9.68745 9.64836 9.9421 9.22122 9.9971C8.73321 10.0372 8.30554 9.92919 7.92099 9.61973C7.5962 9.31437 7.38794 8.91135 7.37195 8.46652C7.36489 7.97506 7.53519 7.57956 7.87905 7.22563C8.05232 7.07339 8.23425 6.95942 8.45071 6.87919C8.47035 6.87131 8.48999 6.86343 8.51023 6.85532C8.99477 6.69046 9.52782 6.82207 9.93871 7.10074ZM8.25653 7.8721C8.13092 8.04194 8.04985 8.27626 8.07789 8.48763C8.11442 8.65662 8.17629 8.79269 8.27673 8.93305C8.29826 8.9652 8.29826 8.9652 8.32022 8.99801C8.49418 9.18081 8.72664 9.29084 8.97733 9.31041C9.23944 9.2933 9.48283 9.18073 9.66395 8.99027C9.82941 8.78815 9.91431 8.54857 9.8923 8.28967C9.83936 8.00469 9.67814 7.79035 9.44491 7.62155C9.01032 7.38164 8.57405 7.50631 8.25653 7.8721Z" fill="#0C3973"/>
<path d="M19.7846 6.82971C21.3589 6.82971 21.3589 6.82971 21.8289 7.26894C22.1462 7.60363 22.29 8.03317 22.2786 8.48948C22.2392 8.93714 22.066 9.32687 21.7233 9.62593C21.1444 10.0724 20.5064 9.94762 19.7846 9.94762C19.7846 8.91871 19.7846 7.8898 19.7846 6.82971ZM20.4805 7.49783C20.4805 8.09395 20.4805 8.69006 20.4805 9.30424C20.8121 9.30424 21.0268 9.29092 21.2758 9.0825C21.4555 8.90046 21.5477 8.65443 21.5586 8.40104C21.5477 8.14764 21.4555 7.90161 21.2758 7.71957C21.0268 7.51115 20.8121 7.49783 20.4805 7.49783Z" fill="#0C3973"/>
<path d="M15.261 11.3333C16.8323 11.3333 16.8323 11.3333 17.1352 11.6107C17.3247 11.8225 17.413 12.0769 17.4094 12.3571C17.4092 12.3777 17.409 12.3982 17.4088 12.4193C17.4005 12.7292 17.2778 12.9488 17.0552 13.1598C16.9555 13.2439 16.8533 13.2825 16.7274 13.3129C16.8672 13.4944 17.0075 13.6753 17.1484 13.8558C17.1631 13.8745 17.1777 13.8933 17.1928 13.9127C17.2639 14.0036 17.3351 14.0943 17.407 14.1846C17.4197 14.2007 17.4325 14.2168 17.4457 14.2333C17.4697 14.2635 17.4937 14.2937 17.5178 14.3238C17.5974 14.4237 17.5974 14.4237 17.5974 14.4512C17.3091 14.5141 16.9541 14.5852 16.6777 14.4512C16.3691 14.2039 16.1834 13.7793 16.0066 13.4367C15.9984 13.7715 15.9902 14.1063 15.9818 14.4512C15.7439 14.4512 15.5061 14.4512 15.261 14.4512C15.261 13.4223 15.261 12.3934 15.261 11.3333ZM15.9818 11.9025C15.9818 12.1964 15.9818 12.4904 15.9818 12.7933C16.316 12.8249 16.316 12.8249 16.5929 12.7093C16.708 12.5792 16.7437 12.4543 16.7352 12.2816C16.7147 12.13 16.6343 12.0506 16.5216 11.9569C16.3602 11.8448 16.1865 11.9025 15.9818 11.9025Z" fill="#0C3973"/>
<path d="M8.99753 2.59827C10.4603 2.59827 10.4603 2.59827 10.8042 2.81324C11.033 3.04105 11.1432 3.30514 11.1475 3.6252C11.1437 3.91131 11.0652 4.14756 10.8617 4.35518C10.7412 4.46263 10.6101 4.53509 10.464 4.60263C10.4785 4.61948 10.4929 4.63632 10.5079 4.65367C10.643 4.81276 10.7712 4.97538 10.8957 5.14288C10.9994 5.28189 11.1074 5.41699 11.2182 5.55048C11.309 5.6614 11.309 5.6614 11.309 5.71617C11.0281 5.77791 10.6839 5.84611 10.4143 5.71617C10.1093 5.47465 9.92165 5.06138 9.74318 4.72636C9.73498 5.053 9.72677 5.37963 9.71832 5.71617C9.48046 5.71617 9.2426 5.71617 8.99753 5.71617C8.99753 4.68726 8.99753 3.65835 8.99753 2.59827ZM9.71832 3.16741C9.71832 3.46138 9.71832 3.75536 9.71832 4.05824C10.1057 4.08959 10.1057 4.08959 10.29 3.984C10.403 3.86633 10.4573 3.77901 10.4733 3.61746C10.4693 3.48448 10.4192 3.3733 10.3274 3.27683C10.1318 3.10784 10.0192 3.16741 9.71832 3.16741Z" fill="#88B9C5"/>
<path d="M1.66528 6.8297C1.90315 6.8297 2.14101 6.8297 2.38608 6.8297C2.39838 7.4789 2.39838 7.4789 2.41093 8.1412C2.51756 7.98605 2.62419 7.8309 2.73405 7.67104C2.87075 7.48545 2.87075 7.48545 2.94007 7.3972C2.99354 7.32556 3.02895 7.25444 3.06396 7.17237C3.13052 7.03078 3.19025 6.90923 3.33057 6.8297C3.62257 6.75675 3.95409 6.80184 4.2502 6.8297C4.21802 6.89773 4.18252 6.95617 4.13632 7.01558C4.12356 7.03208 4.1108 7.04858 4.09766 7.06558C4.08392 7.08318 4.07018 7.10078 4.05602 7.11891C4.0267 7.15677 3.99738 7.19463 3.96806 7.23249C3.94551 7.26153 3.94551 7.26153 3.9225 7.29115C3.85171 7.38246 3.78146 7.47419 3.71116 7.56588C3.61564 7.69033 3.51985 7.81457 3.42378 7.9386C3.30849 8.08762 3.19498 8.23789 3.08202 8.38866C3.15802 8.50681 3.24244 8.6146 3.33212 8.72272C3.43653 8.84955 3.53996 8.97696 3.64126 9.10627C3.74083 9.23322 3.84201 9.35875 3.94418 9.48363C3.95778 9.50027 3.97139 9.51691 3.98541 9.53405C4.01172 9.56621 4.03803 9.59837 4.06435 9.63052C4.11658 9.69437 4.16873 9.75827 4.22069 9.82234C4.23623 9.84144 4.25177 9.86055 4.26778 9.88024C4.29991 9.92286 4.29991 9.92286 4.29991 9.94761C3.38162 10.0161 3.38162 10.0161 3.2094 9.87337C3.14195 9.79324 3.09805 9.70347 3.0576 9.60745C3.01572 9.51511 2.95514 9.43696 2.89561 9.35527C2.87326 9.3228 2.85103 9.29026 2.82891 9.25764C2.73997 9.12762 2.64852 8.99938 2.55715 8.87105C2.54526 8.85435 2.53338 8.83765 2.52113 8.82044C2.51064 8.80573 2.50014 8.79101 2.48933 8.77585C2.46263 8.73791 2.43675 8.6994 2.41093 8.66085C2.40273 9.08548 2.39453 9.51011 2.38608 9.94761C2.14822 9.94761 1.91035 9.94761 1.66528 9.94761C1.66528 8.9187 1.66528 7.88979 1.66528 6.8297Z" fill="#0C3973"/>
<path d="M11.5327 2.59825C11.7624 2.59825 11.992 2.59825 12.2287 2.59825C12.241 3.24745 12.241 3.24745 12.2535 3.90975C12.483 3.59632 12.483 3.59632 12.7046 3.27805C12.7296 3.24118 12.7551 3.20467 12.7809 3.16843C12.8484 3.07358 12.907 2.98266 12.9549 2.87654C13.0162 2.7543 13.0703 2.65839 13.198 2.59825C13.4863 2.53817 13.8017 2.57463 14.0928 2.59825C14.0558 2.69562 14.0152 2.76186 13.9468 2.84107C13.8534 2.95198 13.7646 3.06511 13.678 3.18131C13.5264 3.38421 13.3706 3.58363 13.2143 3.78294C13.1171 3.90721 13.0209 4.03222 12.9246 4.1572C13.0308 4.30118 13.1419 4.44082 13.2543 4.58006C13.3393 4.68548 13.4235 4.79149 13.5071 4.89802C13.6077 5.02603 13.71 5.15252 13.8132 5.27847C14.1425 5.6808 14.1425 5.6808 14.1425 5.71616C13.3139 5.786 13.3139 5.786 13.1011 5.68042C12.9941 5.58577 12.9381 5.46535 12.8815 5.33638C12.8259 5.22042 12.7474 5.12048 12.6714 5.0171C12.6445 4.97889 12.6178 4.94061 12.5911 4.90227C12.4796 4.74393 12.3664 4.58676 12.2535 4.4294C12.2453 4.85403 12.2371 5.27866 12.2287 5.71616C11.999 5.71616 11.7693 5.71616 11.5327 5.71616C11.5327 4.68725 11.5327 3.65834 11.5327 2.59825Z" fill="#88B9C5"/>
<path d="M4.21602 11.6581C4.4345 11.8433 4.60445 12.0763 4.69758 12.3479C4.69758 12.3724 4.69758 12.3969 4.69758 12.4221C4.5915 12.4283 4.48552 12.4327 4.37931 12.4357C4.34328 12.4369 4.30726 12.4386 4.27127 12.4408C3.97153 12.4583 3.97153 12.4583 3.86113 12.3685C3.80863 12.302 3.80863 12.302 3.76686 12.2354C3.67863 12.0967 3.53761 12.0487 3.38493 12.0045C3.14767 11.9525 2.94538 11.9827 2.73404 12.1004C2.71843 12.1091 2.70283 12.1177 2.68675 12.1266C2.48191 12.2556 2.36361 12.4888 2.3115 12.7191C2.28052 13.013 2.32394 13.2747 2.51034 13.5109C2.67603 13.6988 2.88618 13.8129 3.13628 13.8333C3.38636 13.8309 3.58992 13.735 3.77329 13.5728C3.82987 13.5145 3.82987 13.5145 3.85701 13.4459C3.90222 13.3872 3.90222 13.3872 3.9837 13.3731C4.01697 13.3732 4.05024 13.3739 4.08349 13.3751C4.10104 13.3753 4.11859 13.3755 4.13667 13.3756C4.19266 13.3763 4.24859 13.3779 4.30456 13.3795C4.34254 13.3801 4.38052 13.3806 4.4185 13.3811C4.51155 13.3825 4.60456 13.3846 4.69758 13.3872C4.64707 13.7192 4.41042 14.0076 4.1465 14.2067C3.74221 14.4746 3.30272 14.5622 2.82239 14.4874C2.75769 14.4707 2.69691 14.4505 2.63462 14.4265C2.61421 14.4199 2.5938 14.4133 2.57277 14.4065C2.23144 14.2876 1.90658 14.0042 1.73984 13.6841C1.55684 13.2695 1.47299 12.784 1.64042 12.3479C1.81116 11.9246 2.1173 11.6087 2.53355 11.4147C3.10283 11.1765 3.7342 11.2902 4.21602 11.6581Z" fill="#0C3973"/>
<path d="M6.85998 2.59827C7.05683 2.59827 7.25369 2.59827 7.4565 2.59827C7.56833 2.82094 7.56833 2.82094 7.60653 2.91696C7.61954 2.94948 7.61954 2.94948 7.63282 2.98265C7.64192 3.00563 7.65102 3.02861 7.66039 3.05228C7.67021 3.07685 7.68002 3.10142 7.69014 3.12674C7.71118 3.17941 7.73218 3.2321 7.75315 3.2848C7.80873 3.42445 7.86461 3.56397 7.9205 3.70349C7.93173 3.73154 7.94296 3.7596 7.95453 3.7885C8.05677 4.0435 8.16086 4.29771 8.26584 4.5516C8.27391 4.57112 8.28198 4.59065 8.29029 4.61077C8.3437 4.74006 8.39719 4.86931 8.4507 4.99856C8.50468 5.12894 8.55853 5.25937 8.61226 5.38984C8.62378 5.41761 8.6353 5.44537 8.64717 5.47398C8.65744 5.49894 8.6677 5.5239 8.67828 5.54962C8.6872 5.57121 8.69613 5.5928 8.70532 5.61504C8.72411 5.66668 8.72411 5.66668 8.72411 5.71617C8.46984 5.71617 8.21557 5.71617 7.9536 5.71617C7.92079 5.62788 7.88799 5.53958 7.85418 5.44861C7.8438 5.42087 7.83342 5.39312 7.82273 5.36454C7.81465 5.34262 7.80658 5.3207 7.79826 5.29811C7.78576 5.26448 7.78576 5.26448 7.77302 5.23018C7.75476 5.17177 7.75476 5.17177 7.75476 5.09754C7.36926 5.1057 6.98376 5.11387 6.58658 5.12228C6.52096 5.30193 6.45534 5.48159 6.38774 5.66668C6.37953 5.68301 6.37133 5.69934 6.36288 5.71617C6.10862 5.71617 5.85435 5.71617 5.59238 5.71617C5.71857 5.37415 5.85601 5.03722 5.99472 4.70007C6.04345 4.58138 6.09215 4.46268 6.14084 4.34397C6.15311 4.31407 6.16538 4.28416 6.17802 4.25336C6.26101 4.05097 6.34354 3.84841 6.4257 3.64569C6.4365 3.61903 6.44731 3.59238 6.45844 3.56492C6.50956 3.43874 6.56063 3.31253 6.61164 3.1863C6.63002 3.14092 6.6484 3.09554 6.66677 3.05016C6.67485 3.03011 6.68294 3.01006 6.69126 2.9894C6.74472 2.8575 6.80188 2.72843 6.85998 2.59827ZM7.13339 3.51384C7.08373 3.65034 7.03418 3.78687 6.98472 3.92344C6.96787 3.96992 6.95099 4.01639 6.93409 4.06285C6.90983 4.12953 6.88567 4.19624 6.86154 4.26297C6.85392 4.28382 6.84631 4.30467 6.83847 4.32616C6.8315 4.34548 6.82454 4.3648 6.81736 4.3847C6.81118 4.40173 6.805 4.41877 6.79863 4.43632C6.78297 4.47936 6.78297 4.47936 6.78542 4.5284C7.03148 4.5284 7.27755 4.5284 7.53107 4.5284C7.48639 4.38013 7.44186 4.23428 7.38941 4.08898C7.38345 4.0723 7.37749 4.05562 7.37134 4.03844C7.35267 3.98625 7.33391 3.93409 7.31514 3.88193C7.3023 3.8461 7.28947 3.81027 7.27664 3.77444C7.24553 3.68755 7.21433 3.60069 7.1831 3.51384C7.16669 3.51384 7.15029 3.51384 7.13339 3.51384Z" fill="#88B9C5"/>
<path d="M5.07043 11.3334C5.3693 11.3328 5.66817 11.3323 5.97609 11.3318C6.07059 11.3316 6.16509 11.3314 6.26245 11.3311C6.37751 11.331 6.37751 11.331 6.43131 11.331C6.46903 11.331 6.50674 11.3309 6.54446 11.3307C6.60146 11.3306 6.65847 11.3305 6.71547 11.3305C6.76374 11.3305 6.76374 11.3305 6.81298 11.3304C6.88485 11.3334 6.88485 11.3334 6.90971 11.3581C6.91188 11.404 6.91236 11.4499 6.91213 11.4958C6.91207 11.5209 6.91201 11.546 6.91194 11.5718C6.91172 11.6039 6.91149 11.6359 6.91126 11.669C6.91075 11.7705 6.91023 11.8721 6.90971 11.9767C6.54061 11.9767 6.17151 11.9767 5.79123 11.9767C5.79123 12.1727 5.79123 12.3687 5.79123 12.5706C6.14392 12.5706 6.49662 12.5706 6.86 12.5706C6.86 12.7829 6.86 12.9953 6.86 13.214C6.5073 13.214 6.15461 13.214 5.79123 13.214C5.79123 13.41 5.79123 13.606 5.79123 13.8079C5.86989 13.8076 5.94854 13.8073 6.02959 13.807C6.10543 13.8068 6.18127 13.8067 6.25711 13.8065C6.30998 13.8064 6.36286 13.8062 6.41573 13.806C6.49155 13.8057 6.56737 13.8056 6.64319 13.8055C6.67888 13.8053 6.67888 13.8053 6.71529 13.8051C6.73719 13.8051 6.75908 13.8051 6.78164 13.8051C6.80101 13.805 6.82038 13.805 6.84034 13.8049C6.88485 13.8079 6.88485 13.8079 6.90971 13.8326C6.90971 14.0368 6.90971 14.2409 6.90971 14.4513C6.30275 14.4513 5.69579 14.4513 5.07043 14.4513C5.07043 13.4224 5.07043 12.3934 5.07043 11.3334Z" fill="#0C3973"/>
<path d="M14.3413 2.59825C14.6402 2.59774 14.9391 2.59723 15.247 2.59671C15.3415 2.59648 15.436 2.59625 15.5334 2.59602C15.6484 2.59591 15.6484 2.59591 15.7022 2.59589C15.7399 2.59585 15.7776 2.59576 15.8154 2.59564C15.8724 2.59546 15.9294 2.59543 15.9864 2.59544C16.0346 2.59536 16.0346 2.59536 16.0839 2.59528C16.1558 2.59825 16.1558 2.59825 16.1806 2.623C16.1828 2.66887 16.1833 2.71482 16.183 2.76074C16.183 2.7858 16.1829 2.81086 16.1828 2.83667C16.1826 2.86874 16.1824 2.90082 16.1822 2.93386C16.1817 3.03542 16.1811 3.13699 16.1806 3.24163C15.8115 3.24163 15.4424 3.24163 15.0621 3.24163C15.0621 3.43761 15.0621 3.63359 15.0621 3.83552C15.4148 3.83552 15.7675 3.83552 16.1309 3.83552C16.1309 4.04783 16.1309 4.26014 16.1309 4.47889C15.7782 4.47889 15.4255 4.47889 15.0621 4.47889C15.0621 4.67487 15.0621 4.87086 15.0621 5.07278C15.1408 5.07249 15.2194 5.0722 15.3005 5.07191C15.3763 5.07172 15.4522 5.07157 15.528 5.07142C15.5809 5.07129 15.6338 5.07113 15.6866 5.07091C15.7625 5.07061 15.8383 5.07047 15.9141 5.07036C15.9498 5.07017 15.9498 5.07017 15.9862 5.06997C16.0081 5.06997 16.03 5.06997 16.0525 5.06997C16.0719 5.06991 16.0913 5.06986 16.1112 5.0698C16.1558 5.07278 16.1558 5.07278 16.1806 5.09752C16.1806 5.30167 16.1806 5.50582 16.1806 5.71616C15.5737 5.71616 14.9667 5.71616 14.3413 5.71616C14.3413 4.68725 14.3413 3.65834 14.3413 2.59825Z" fill="#88B8C5"/>
<path d="M12.9246 11.3333C13.5234 11.3333 14.1221 11.3333 14.739 11.3333C14.739 11.5456 14.739 11.7579 14.739 11.9767C14.3699 11.9767 14.0008 11.9767 13.6206 11.9767C13.6206 12.1727 13.6206 12.3687 13.6206 12.5706C13.9733 12.5706 14.3259 12.5706 14.6893 12.5706C14.6893 12.7829 14.6893 12.9952 14.6893 13.214C14.3366 13.214 13.9839 13.214 13.6206 13.214C13.6206 13.4099 13.6206 13.6059 13.6206 13.8078C13.9897 13.8078 14.3588 13.8078 14.739 13.8078C14.739 14.0202 14.739 14.2325 14.739 14.4512C14.1403 14.4512 13.5415 14.4512 12.9246 14.4512C12.9246 13.4223 12.9246 12.3934 12.9246 11.3333Z" fill="#0C3973"/>
<path d="M26.2718 6.82971C26.8705 6.82971 27.4693 6.82971 28.0862 6.82971C28.0862 7.04203 28.0862 7.25434 28.0862 7.47309C27.7171 7.47309 27.348 7.47309 26.9677 7.47309C26.9677 7.66907 26.9677 7.86505 26.9677 8.06698C27.3204 8.06698 27.6731 8.06698 28.0365 8.06698C28.0365 8.27929 28.0365 8.4916 28.0365 8.71035C27.6838 8.71035 27.3311 8.71035 26.9677 8.71035C26.9677 8.90633 26.9677 9.10232 26.9677 9.30424C27.3368 9.30424 27.7059 9.30424 28.0862 9.30424C28.0862 9.51655 28.0862 9.72887 28.0862 9.94762C27.4874 9.94762 26.8887 9.94762 26.2718 9.94762C26.2718 8.91871 26.2718 7.8898 26.2718 6.82971Z" fill="#0C3973"/>
<path d="M17.4234 6.82971C18.0221 6.82971 18.6209 6.82971 19.2378 6.82971C19.2378 7.04203 19.2378 7.25434 19.2378 7.47309C18.8687 7.47309 18.4996 7.47309 18.1193 7.47309C18.1193 7.66907 18.1193 7.86505 18.1193 8.06698C18.472 8.06698 18.8247 8.06698 19.1881 8.06698C19.1881 8.27929 19.1881 8.4916 19.1881 8.71035C18.8354 8.71035 18.4827 8.71035 18.1193 8.71035C18.1193 8.90633 18.1193 9.10232 18.1193 9.30424C18.4884 9.30424 18.8575 9.30424 19.2378 9.30424C19.2378 9.51655 19.2378 9.72887 19.2378 9.94762C18.639 9.94762 18.0403 9.94762 17.4234 9.94762C17.4234 8.91871 17.4234 7.8898 17.4234 6.82971Z" fill="#0C3973"/>
<path d="M16.4292 2.59827C17.2494 2.59827 18.0696 2.59827 18.9147 2.59827C18.9147 2.81058 18.9147 3.0229 18.9147 3.24164C18.6276 3.24164 18.3405 3.24164 18.0447 3.24164C18.0447 4.05824 18.0447 4.87483 18.0447 5.71617C17.8069 5.71617 17.569 5.71617 17.3239 5.71617C17.3239 4.89958 17.3239 4.08298 17.3239 3.24164C17.0287 3.24164 16.7334 3.24164 16.4292 3.24164C16.4292 3.02933 16.4292 2.81701 16.4292 2.59827Z" fill="#87B9C5"/>
<path d="M10.1657 11.3333C10.9859 11.3333 11.8061 11.3333 12.6512 11.3333C12.6512 11.5456 12.6512 11.7579 12.6512 11.9767C12.3559 11.9767 12.0607 11.9767 11.7564 11.9767C11.7564 12.7933 11.7564 13.6099 11.7564 14.4512C11.5268 14.4512 11.2971 14.4512 11.0605 14.4512C11.0605 13.6346 11.0605 12.818 11.0605 11.9767C10.7652 11.9767 10.4699 11.9767 10.1657 11.9767C10.1657 11.7644 10.1657 11.5521 10.1657 11.3333Z" fill="#0C3973"/>
<path d="M15.1864 6.82971C15.4161 6.82971 15.6457 6.82971 15.8823 6.82971C15.8823 7.64631 15.8823 8.4629 15.8823 9.30424C16.2514 9.30424 16.6205 9.30424 17.0008 9.30424C17.0008 9.51655 17.0008 9.72887 17.0008 9.94762C16.4021 9.94762 15.8033 9.94762 15.1864 9.94762C15.1864 8.91871 15.1864 7.8898 15.1864 6.82971Z" fill="#0C3973"/>
</svg>