<?xml version="1.0" encoding="UTF-8"?>
<svg version="1.1" xmlns="http://www.w3.org/2000/svg" width="326" height="82">
<path d="M0 0 C10.23 0 20.46 0 31 0 C33.33485659 11.95185331 35.52901522 23.91175314 37.54296875 35.921875 C37.86710251 37.85468323 37.86710251 37.85468323 38.19778442 39.82653809 C39.09238416 45.17402197 39.98369218 50.52204413 40.87182617 55.87060547 C41.31768105 58.55450553 41.76565198 61.2380365 42.21589661 63.92120361 C42.63560209 66.42351542 43.05196422 68.92639076 43.46464539 71.42987061 C43.65186661 72.54323792 43.83908783 73.65660522 44.03198242 74.80371094 C44.19534592 75.78627869 44.35870941 76.76884644 44.52702332 77.78118896 C44.78177539 79.96315852 44.78177539 79.96315852 46 81 C46.27339706 80.02947189 46.54679413 79.05894379 46.82847595 78.05900574 C49.40274536 68.92100216 51.9777638 59.78320994 54.55351925 50.64562511 C55.87777313 45.94769441 57.20176129 41.24968916 58.52514648 36.55151367 C59.80184759 32.01910946 61.07924106 27.48690092 62.35711861 22.95482826 C62.84498415 21.22411387 63.33259848 19.49332864 63.81995964 17.76247215 C64.50162634 15.34170528 65.18417881 12.92118984 65.86694336 10.50073242 C66.06906433 9.78216064 66.2711853 9.06358887 66.47943115 8.32324219 C67.26882265 5.52766447 68.08121439 2.75635682 69 0 C78.24 0 87.48 0 97 0 C98.8541619 4.94443173 100.54128857 9.58891238 101.96118164 14.62451172 C102.3148732 15.87295868 102.66856476 17.12140564 103.03297424 18.40768433 C103.408887 19.74830007 103.78460963 21.08896914 104.16015625 22.4296875 C104.55444804 23.82924769 104.94893713 25.22875232 105.34361267 26.62820435 C106.16697932 29.55081835 106.98782361 32.47412579 107.80688477 35.39794922 C108.8497604 39.11987861 109.89912979 42.83993991 110.95044804 46.55949211 C111.76564395 49.44658665 112.57722891 52.33468705 113.38778496 55.22308731 C113.77295586 56.59393904 114.15923581 57.96447972 114.54670906 59.33468246 C116.66807061 66.84410628 118.63855803 74.31265824 120 82 C120.66 82 121.32 82 122 82 C122.06090065 81.09788033 122.06090065 81.09788033 122.12303162 80.17753601 C122.80345698 71.49236028 124.24731053 62.97020158 125.72265625 54.39453125 C125.99063747 52.81847777 126.25824475 51.24236066 126.52549744 49.66618347 C127.22375326 45.55407812 127.92702499 41.44284659 128.63140869 37.33178711 C129.47880666 32.379614 130.31985788 27.4263594 131.16199493 22.47328949 C132.43651669 14.98136145 133.71900319 7.49083657 135 0 C145.56 0 156.12 0 167 0 C165.71774495 8.33465783 164.37793109 16.58502245 162.75341797 24.84887695 C162.53854736 25.95292877 162.32367676 27.05698059 162.10229492 28.19448853 C161.40135387 31.79289786 160.69680641 35.39059046 159.9921875 38.98828125 C159.50157618 41.50314533 159.01119282 44.01805389 158.52102661 46.53300476 C157.36842843 52.44386871 156.21355627 58.3542838 155.05754483 64.26448077 C153.73987439 71.00185994 152.42516555 77.73981598 151.11068511 84.47781813 C148.41038025 98.31918284 145.70603184 112.15975386 143 126 C131.78 126 120.56 126 109 126 C106.89218104 121.08175576 105.11719207 116.43487676 103.65576172 111.33642578 C103.44235138 110.6054921 103.22894104 109.87455841 103.00906372 109.12147522 C102.550431 107.5484757 102.09382256 105.9748848 101.63906479 104.40076065 C100.92005633 101.91197502 100.19569637 99.42480126 99.47000122 96.93795776 C98.19432534 92.5631898 96.92334426 88.18707455 95.65393066 83.81048584 C93.61596641 76.78428389 91.57422262 69.75919581 89.52606583 62.7359581 C88.81143841 60.28100386 88.10090188 57.82488996 87.39059448 55.36868286 C86.95572225 53.87480628 86.52068311 52.38097828 86.08544922 50.88720703 C85.88804138 50.20049423 85.69063354 49.51378143 85.48724365 48.80625916 C84.73396948 45.64266662 84.73396948 45.64266662 83 43 C82.70154678 44.01033295 82.40309357 45.02066589 82.09559631 46.06161499 C79.28707723 55.56820203 76.47659637 65.07420714 73.66417789 74.57964134 C72.21824092 79.46686392 70.77300366 84.35429118 69.3293457 89.2421875 C67.93694541 93.95644348 66.54273302 98.67015999 65.14724541 103.38350296 C64.61431305 105.18469649 64.08204159 106.9860857 63.55043221 108.78767014 C62.80757024 111.30476382 62.06239285 113.82116082 61.31665039 116.33740234 C61.09582794 117.08762161 60.87500549 117.83784088 60.64749146 118.61079407 C59.11405216 123.77189568 59.11405216 123.77189568 58 126 C46.78 126 35.56 126 24 126 C22.05755157 118.23020629 20.23597 110.55952201 18.73168945 102.71118164 C18.52642639 101.65432159 18.32116333 100.59746155 18.10968018 99.50857544 C17.44084091 96.05974519 16.77682692 92.61000858 16.11328125 89.16015625 C15.64689839 86.74544844 15.18035835 84.33077099 14.71366882 81.91612244 C13.74071585 76.87769631 12.77027525 71.83879418 11.80151367 66.79956055 C10.55942139 60.34010876 9.31006876 53.8820852 8.05874348 47.42441654 C7.09554644 42.44856291 6.13664755 37.47188833 5.17900658 32.49496269 C4.71993777 30.11243416 4.2594173 27.73018486 3.79741859 25.34822273 C3.15387701 22.02733761 2.51624323 18.7053709 1.88012695 15.38305664 C1.68847458 14.40065506 1.4968222 13.41825348 1.29936218 12.40608215 C1.12700043 11.49940796 0.95463867 10.59273376 0.77705383 9.65858459 C0.62608907 8.8749759 0.4751243 8.09136721 0.31958485 7.28401279 C0 5 0 5 0 0 Z " fill="#0C3973" transform="translate(433,276)"/>
<path d="M0 0 C11.22 0 22.44 0 34 0 C39.54545689 16.11903673 44.35104947 32.43842113 49.16137695 48.78735352 C50.88652823 54.64976297 52.61542419 60.51106307 54.34729576 66.37149048 C54.94781238 68.40626307 55.5458883 70.44174182 56.14375305 72.47729492 C56.50470566 73.70037354 56.86565826 74.92345215 57.23754883 76.18359375 C57.71337151 77.80092407 57.71337151 77.80092407 58.19880676 79.45092773 C58.91258545 81.9572093 58.91258545 81.9572093 60 84 C62.07866708 77.03452432 64.15703834 70.06896044 66.2350769 63.10329723 C67.2010183 59.86545589 68.16707361 56.62764865 69.13330078 53.38989258 C74.44240551 35.59918672 79.73051393 17.80247964 85 0 C96.22 0 107.44 0 119 0 C122.3305108 15.85957522 125.55634182 31.73232092 128.64453125 47.640625 C129.0633363 49.79393147 129.48217553 51.9472313 129.90104675 54.1005249 C130.76684433 58.55376581 131.63127765 63.00726904 132.49487305 67.4609375 C133.60191267 73.16873081 134.71398087 78.8755326 135.82718372 84.58212662 C136.68842199 89.00131614 137.54630577 93.42115188 138.40323448 97.84117889 C138.81229299 99.94817388 139.22257198 102.05493231 139.63410378 104.16144562 C140.20466801 107.08384666 140.77053122 110.00712001 141.33520508 112.93066406 C141.50501389 113.79495026 141.67482269 114.65923645 141.84977722 115.54971313 C142.00242035 116.34511505 142.15506348 117.14051697 142.31233215 117.96002197 C142.51275981 118.99176229 142.51275981 118.99176229 142.71723652 120.04434586 C143 122 143 122 143 126 C132.77 126 122.54 126 112 126 C110.69749597 120.7899839 109.55988203 115.85213796 108.68725586 110.59008789 C108.57152725 109.89802246 108.45579865 109.20595703 108.33656311 108.49291992 C108.08855055 107.00745269 107.84198414 105.5217434 107.59675407 104.03581429 C107.20882719 101.68621512 106.81669712 99.33735098 106.42347717 96.9886322 C105.44926797 91.16494821 104.48137799 85.34021897 103.51483154 79.51525879 C102.69456599 74.57232602 101.87118752 69.6299343 101.04318428 64.68829155 C100.65614685 62.37043193 100.27382601 60.05182445 99.8915863 57.73316956 C99.65575619 56.32345486 99.41969043 54.91377956 99.18334961 53.50415039 C98.87596107 51.65171471 98.87596107 51.65171471 98.56236267 49.76185608 C98.28513858 47.10120372 98.28513858 47.10120372 97 46 C96.72660294 46.97274872 96.45320587 47.94549744 96.17152405 48.94772339 C93.59861631 58.10113806 91.02359302 67.25395524 88.44648075 76.40618706 C87.12153443 81.11179968 85.79734244 85.81762188 84.47485352 90.52392578 C83.19929049 95.06313053 81.92177329 99.60178104 80.64288139 104.14004898 C80.15455471 105.87425134 79.66694049 107.60865448 79.18004036 109.3432579 C78.49958008 111.76696675 77.81662282 114.18995857 77.13305664 116.61279297 C76.82987518 117.69604355 76.82987518 117.69604355 76.52056885 118.80117798 C75.11405216 123.77189568 75.11405216 123.77189568 74 126 C64.43 126 54.86 126 45 126 C43.74703125 121.54242188 42.4940625 117.08484375 41.203125 112.4921875 C40.40107424 109.63931375 39.59900582 106.78644499 38.796875 103.93359375 C37.52847599 99.422411 36.26013639 94.91121163 34.9921875 90.39990234 C33.96798201 86.75583782 32.94347933 83.11185696 31.9187851 79.46792984 C31.53123509 78.08956906 31.14378561 76.71118001 30.75644684 75.33275986 C30.38680434 74.01736331 30.01698628 72.70201608 29.6469841 71.38672066 C29.1159321 69.49809414 28.58609219 67.60912694 28.05627441 65.72015381 C27.33099237 63.16574113 26.59512882 60.61718579 25.84118652 58.0713501 C25.47432739 56.82335632 25.10746826 55.57536255 24.72949219 54.28955078 C24.39729675 53.17524689 24.06510132 52.06094299 23.72283936 50.91287231 C23 48 23 48 23 44 C22.34 44 21.68 44 21 44 C20.93909935 45.01250824 20.93909935 45.01250824 20.87696838 46.04547119 C20.24595907 54.96815606 18.81883131 63.68687297 17.27734375 72.484375 C17.00927762 74.03656338 16.7416721 75.58883136 16.47450256 77.14117432 C15.77710321 81.18602361 15.07353801 85.22977565 14.36859131 89.27331543 C13.52029257 94.1469196 12.67982061 99.02187911 11.83800507 103.89660645 C10.56459542 111.2654479 9.28138469 118.63252119 8 126 C-2.56 126 -13.12 126 -24 126 C-19.61221666 100.8179391 -14.73487272 75.73761774 -9.84899902 50.64831543 C-8.73436201 44.92209659 -7.62218028 39.1954009 -6.50976562 33.46875 C-4.34218866 22.31204291 -2.1717498 11.15589556 0 0 Z " fill="#88B9C5" transform="translate(81,105)"/>
<path d="M0 0 C9.24 0 18.48 0 28 0 C34.846061 11.87750342 41.55757536 23.79823667 48.04907227 35.87255859 C52.51150316 44.15179778 57.11179957 52.34755264 61.77514648 60.51513672 C62.54000366 61.85729248 62.54000366 61.85729248 63.3203125 63.2265625 C63.76648926 64.00596191 64.21266602 64.78536133 64.67236328 65.58837891 C66.19304241 68.35065703 67.58984785 71.1796957 69 74 C69.33 49.58 69.66 25.16 70 0 C79.57 0 89.14 0 99 0 C99 41.58 99 83.16 99 126 C89.43 126 79.86 126 70 126 C63.25170068 114.75283447 63.25170068 114.75283447 60.4765625 109.69921875 C59.54493286 108.00635742 59.54493286 108.00635742 58.59448242 106.27929688 C57.93798539 105.08203284 57.28149132 103.88476717 56.625 102.6875 C55.93290888 101.42892078 55.24060314 100.17045957 54.5480957 98.91210938 C53.10393378 96.28743143 51.66069684 93.66224842 50.21826172 91.03662109 C46.8972519 84.99216673 43.57016172 78.95106649 40.24066162 72.9112854 C39.20660828 71.03467785 38.17380725 69.15738516 37.14111328 67.2800293 C36.51060059 66.13574463 35.88008789 64.99145996 35.23046875 63.8125 C34.67770264 62.80832031 34.12493652 61.80414062 33.55541992 60.76953125 C32.08532332 58.15192398 30.54460605 55.57434341 29 53 C28.67 77.09 28.34 101.18 28 126 C18.76 126 9.52 126 0 126 C0 84.42 0 42.84 0 0 Z " fill="#0C3973" transform="translate(299,458)"/>
<path d="M0 0 C9.24 0 18.48 0 28 0 C34.74829932 11.24716553 34.74829932 11.24716553 37.5234375 16.30078125 C38.14452393 17.42935547 38.76561035 18.55792969 39.40551758 19.72070312 C40.06201461 20.91796716 40.71850868 22.11523283 41.375 23.3125 C42.06709112 24.57107922 42.75939686 25.82954043 43.4519043 27.08789062 C44.89606622 29.71256857 46.33930316 32.33775158 47.78173828 34.96337891 C51.1027481 41.00783327 54.42983828 47.04893351 57.75933838 53.0887146 C58.79339172 54.96532215 59.82619275 56.84261484 60.85888672 58.7199707 C61.48939941 59.86425537 62.11991211 61.00854004 62.76953125 62.1875 C63.32229736 63.19167969 63.87506348 64.19585937 64.44458008 65.23046875 C65.91467668 67.84807602 67.45539395 70.42565659 69 73 C69.33 48.91 69.66 24.82 70 0 C79.57 0 89.14 0 99 0 C99 41.58 99 83.16 99 126 C89.43 126 79.86 126 70 126 C62.76893809 113.28604499 55.62453199 100.54268579 48.68481445 87.66772461 C43.8677817 78.73438511 38.9488099 69.86080927 34 61 C31.525 56.545 31.525 56.545 29 52 C28.67 76.42 28.34 100.84 28 126 C18.76 126 9.52 126 0 126 C0 84.42 0 42.84 0 0 Z " fill="#0C3973" transform="translate(181,276)"/>
<path d="M0 0 C11.1341955 9.20480422 18.40886281 18.58046519 22.25 32.625 C17.96361767 32.84886695 13.68039318 33.01139029 9.38989258 33.11938477 C7.93356026 33.16442597 6.47763006 33.22568743 5.02270508 33.30395508 C-7.08955769 33.93882188 -7.08955769 33.93882188 -11.20483398 30.68261719 C-12.95586218 28.4080525 -14.34225241 26.1205277 -15.75 23.625 C-22.13927694 16.57413071 -30.42102105 15.06652138 -39.50390625 14.5625 C-46.95307645 14.70592566 -52.8781468 17.28698962 -58.9609375 21.44140625 C-60.75 22.625 -60.75 22.625 -62.8515625 23.52734375 C-65.25511502 24.9170521 -65.66373859 26.09944222 -66.75 28.625 C-67.4615625 29.76582031 -67.4615625 29.76582031 -68.1875 30.9296875 C-73.99057855 40.47575171 -76.18555287 50.89137041 -73.63671875 61.8984375 C-70.05371192 72.91578889 -64.89788311 81.16503962 -54.5 86.5 C-45.37768231 90.77785705 -34.47053076 91.23474891 -24.8125 88.125 C-15.51903333 84.15008353 -11.23180184 78.58860368 -6.75 69.625 C-16.98 69.295 -27.21 68.965 -37.75 68.625 C-37.75 61.695 -37.75 54.765 -37.75 47.625 C-16.96 47.625 3.83 47.625 25.25 47.625 C25.25 68.11065313 20.76528064 84.15937651 6.12109375 98.90234375 C-8.56707662 112.83112572 -24.71254877 117.09260729 -44.5078125 116.83203125 C-61.98924781 116.32698447 -75.99001145 107.98087471 -87.75 95.625 C-99.18043552 83.12629948 -104.73095974 67.4565865 -104.75 50.625 C-103.88974468 35.79732645 -99.29382464 23.69040108 -90.75 11.625 C-90.028125 10.59375 -89.30625 9.5625 -88.5625 8.5 C-66.27927204 -16.69606821 -26.46386085 -19.88194006 0 0 Z " fill="#0C3973" transform="translate(1014.75,287.375)"/>
<path d="M0 0 C11.95663282 9.23095664 21.55308475 22.16585798 25.1328125 37.046875 C25.31457031 37.74425781 25.49632812 38.44164062 25.68359375 39.16015625 C28.62648979 58.07146208 24.8852809 75.34848857 14.02734375 91.1015625 C3.51633336 104.53333153 -11.68165596 114.82426584 -28.8671875 117.046875 C-48.50143585 118.66730815 -65.70793964 114.30269491 -81.1796875 101.796875 C-94.24720583 89.45688446 -102.62587966 73.17013418 -103.26953125 55.19360352 C-103.55345247 35.33291955 -96.70179807 19.34979397 -82.8671875 5.046875 C-75.89583469 -1.10541367 -68.57629415 -5.7110488 -59.8671875 -8.953125 C-59.07699219 -9.27152344 -58.28679687 -9.58992188 -57.47265625 -9.91796875 C-37.97769362 -16.58002685 -16.53165535 -11.26134561 0 0 Z M-67.6796875 31.171875 C-72.73341377 38.03554044 -75.995362 47.50498239 -74.8671875 56.046875 C-73.39734046 62.87601049 -70.90788566 68.37460156 -66.8671875 74.046875 C-66.0009375 75.34625 -66.0009375 75.34625 -65.1171875 76.671875 C-58.11838688 84.05949787 -48.76564192 88.50581975 -38.6796875 89.296875 C-28.13392792 88.60534978 -18.34151409 84.05628274 -11.0546875 76.359375 C-4.39736626 68.19117234 -0.98164693 58.5093728 -1.8671875 48.046875 C-3.99721375 36.53029238 -10.48378832 27.86835927 -19.8671875 21.046875 C-37.35225582 11.35162878 -54.90467603 16.3897492 -67.6796875 31.171875 Z " fill="#0C3973" transform="translate(399.8671875,286.953125)"/>
<path d="M0 0 C63.33844581 0 63.33844581 0 82.25 17.75 C95.01671668 31.27539451 100.80331986 48.63397794 100.34375 67.07421875 C98.75969409 85.16485731 91.79106317 100.91445094 78 113 C54.71082463 131.0438656 29.04180949 126 0 126 C0 84.42 0 42.84 0 0 Z M28 27 C28 51.09 28 75.18 28 100 C41.34014252 100 49.97845011 99.46176824 59.99609375 91.0390625 C67.22566167 83.68266005 70.93691674 73.74019614 71.375 63.5 C70.93691674 53.25980386 67.22566167 43.31733995 59.99609375 35.9609375 C49.97845011 27.53823176 41.34014252 27 28 27 Z " fill="#0C3973" transform="translate(796,276)"/>
<path d="M0 0 C63.21794872 0 63.21794872 0 75.40625 11.2109375 C83.02864956 19.76745466 86.58349796 30.05088801 86.4375 41.375 C86.42992676 42.20427002 86.42235352 43.03354004 86.41455078 43.88793945 C86.07927493 56.41183866 81.14415102 65.2832041 72.1875 73.8125 C68.17714239 77.21005635 64.06524001 78.76886527 59 80 C64.62159991 87.33139528 70.26678544 94.6440289 75.9375 101.9375 C76.52692383 102.69587158 77.11634766 103.45424316 77.72363281 104.2355957 C80.58263479 107.90971906 83.4504156 111.57630605 86.33984375 115.2265625 C86.85361572 115.87633057 87.3673877 116.52609863 87.89672852 117.19555664 C88.86247967 118.41522618 89.83032788 119.63323896 90.80053711 120.84936523 C94 124.88986452 94 124.88986452 94 126 C82.40178023 128.54250684 68.12147523 131.41569204 57 126 C44.58305388 116.00504431 37.11059912 98.84727361 30 85 C29.67 98.53 29.34 112.06 29 126 C19.43 126 9.86 126 0 126 C0 84.42 0 42.84 0 0 Z M29 23 C29 34.88 29 46.76 29 59 C42.4448417 60.27660849 42.4448417 60.27660849 53.5859375 55.60546875 C58.21656172 50.34804733 59.65399059 45.29952652 59.3125 38.3203125 C58.48743958 32.19423885 55.25277176 28.98751325 50.71875 25.19921875 C44.22549805 20.66869978 37.23823448 23 29 23 Z " fill="#0C3973" transform="translate(614,458)"/>
<path d="M0 0 C58.85185185 0 58.85185185 0 72.6875 8.6875 C81.89366695 17.89366695 86.32817814 28.56610984 86.5 41.5 C86.34626381 53.06224243 83.1899984 62.60983871 75 71 C70.15270411 75.34216686 64.87893807 78.27049304 59 81 C59.58265625 81.680625 60.1653125 82.36125 60.765625 83.0625 C66.20302246 89.49162404 71.36211368 96.06321546 76.36914062 102.83251953 C80.54031331 108.45014725 84.88756861 113.90946668 89.34326172 119.30395508 C93 123.78674526 93 123.78674526 93 126 C81.69476443 128.49500148 67.84984201 131.2509619 57 126 C44.72921599 116.23964628 37.18036752 99.53874011 30 86 C29.67 99.2 29.34 112.4 29 126 C19.43 126 9.86 126 0 126 C0 84.42 0 42.84 0 0 Z M29 23 C29 34.88 29 46.76 29 59 C44.58382361 60.26710519 44.58382361 60.26710519 52 56 C56.5487534 51.24448508 58.73287129 47.71580855 59.375 41.1875 C59.21276578 35.81349161 57.19992966 31.32055244 53.50390625 27.421875 C45.63463516 20.59268214 41.10434049 23 29 23 Z " fill="#88B9C5" transform="translate(362,105)"/>
<path d="M0 0 C9.57 0 19.14 0 29 0 C29.495 26.235 29.495 26.235 30 53 C34.29 46.73 38.58 40.46 43 34 C48.5 26.5 48.5 26.5 51.2890625 22.93359375 C53.44015089 20.03848007 54.86498175 17.16428347 56.2734375 13.84765625 C58.95145909 8.12568853 61.35463551 3.21376804 67 0 C78.74810236 -2.94837808 92.08612479 -1.12601484 104 0 C102.70526387 2.74891139 101.27678332 5.11081904 99.41796875 7.51171875 C98.90468018 8.17848633 98.3913916 8.84525391 97.86254883 9.53222656 C97.30978271 10.2434668 96.7570166 10.95470703 96.1875 11.6875 C95.00771418 13.2173721 93.82802955 14.74732224 92.6484375 16.27734375 C91.74109863 17.45079346 91.74109863 17.45079346 90.81542969 18.64794922 C87.96723807 22.33803503 85.14073847 26.04461485 82.3125 29.75 C78.46918822 34.77926436 74.61538313 39.80018653 70.75 44.8125 C66.11178407 50.83457708 61.54483411 56.9072876 57 63 C60.05781593 67.77461379 63.45432046 72.13085368 67.0625 76.5 C71.26302725 81.62558718 75.42466181 86.77427963 79.5 92 C83.5060052 97.13016186 87.57687422 102.20328527 91.6875 107.25 C92.23494873 107.92232666 92.78239746 108.59465332 93.34643555 109.28735352 C94.4050078 110.58699787 95.46367942 111.88656128 96.52246094 113.18603516 C98.6239622 115.76603422 100.72209022 118.34849425 102.8125 120.9375 C103.43769531 121.70964844 104.06289062 122.48179687 104.70703125 123.27734375 C106 125 106 125 106 126 C69.05399924 128.76749069 69.05399924 128.76749069 62.125 123 C59.41123485 119.7617778 57.6450347 116.13383336 56.01757812 112.25341797 C54.33256884 108.52197947 51.89527853 105.36380968 49.5 102.0625 C48.60110949 100.75037159 47.70660594 99.43522757 46.81640625 98.1171875 C43.23828458 92.86281717 39.5590871 87.68031045 35.8828125 82.49438477 C35.40457031 81.81947998 34.92632812 81.1445752 34.43359375 80.44921875 C34.01134521 79.85455811 33.58909668 79.25989746 33.15405273 78.6472168 C32.07981721 77.11392568 31.03848464 75.55772696 30 74 C29.67 91.16 29.34 108.32 29 126 C19.43 126 9.86 126 0 126 C0 84.42 0 42.84 0 0 Z " fill="#0C3973" transform="translate(67,276)"/>
<path d="M0 0 C9.24 0 18.48 0 28 0 C28.495 26.235 28.495 26.235 29 53 C38.2327715 40.33345407 38.2327715 40.33345407 47.14868164 27.47192383 C48.15326015 25.98196963 49.17958372 24.50657574 50.22045898 23.04174805 C52.93370679 19.20862243 55.29031748 15.53455192 57.21875 11.24609375 C59.68663332 6.30607489 61.86045807 2.43036969 67 0 C78.60003506 -2.42808814 91.28910049 -0.95479268 103 0 C101.51067962 3.93466203 99.87709391 6.6118047 97.125 9.8125 C93.36783262 14.29473477 89.79800487 18.86639843 86.3125 23.5625 C80.21353503 31.76204457 73.94252225 39.82072537 67.65429688 47.87548828 C63.74398984 52.89725508 59.87280504 57.94929112 56 63 C60.27468338 68.81831904 64.74404004 74.46127844 69.26489258 80.08837891 C72.68557515 84.34865023 76.07346982 88.63240473 79.4375 92.9375 C83.48363611 98.11055776 87.59986684 103.22255713 91.75 108.3125 C105 124.57121667 105 124.57121667 105 126 C71.66231533 128.82256973 71.66231533 128.82256973 63.10253906 124.55566406 C58.79565351 120.7306678 56.54157688 115.86445741 54.26660156 110.65234375 C52.02892278 105.9665029 48.86940306 101.92753768 45.8125 97.75 C44.73176266 96.20585731 43.65492226 94.6589797 42.58203125 93.109375 C38.09594267 86.7104613 33.5422598 80.35916372 29 74 C28.67 91.16 28.34 108.32 28 126 C18.76 126 9.52 126 0 126 C0 84.42 0 42.84 0 0 Z " fill="#88B9C5" transform="translate(464,105)"/>
<path d="M0 0 C8.79027359 7.48429009 15.62810838 16.89792555 19.375 27.875 C19.375 28.865 19.375 29.855 19.375 30.875 C15.10700243 31.12411983 10.84294949 31.30447331 6.56982422 31.42431641 C5.12018088 31.47430411 3.67103419 31.5423306 2.22314453 31.62939453 C-9.83649737 32.33585184 -9.83649737 32.33585184 -14.27832031 28.70776367 C-16.390625 26.01953125 -16.390625 26.01953125 -18.07128906 23.32739258 C-21.62077497 17.72484922 -27.29476401 15.78337497 -33.4375 14 C-42.98332529 11.89607125 -51.12213306 13.11533065 -59.625 17.875 C-60.25277344 18.22433594 -60.88054687 18.57367188 -61.52734375 18.93359375 C-69.76886236 24.14540749 -74.52869151 33.57115893 -76.625 42.875 C-77.87152578 54.75515387 -76.1244127 65.33029292 -68.625 74.875 C-61.95868068 82.467197 -53.50388303 87.07755057 -43.44140625 87.90234375 C-33.37973202 87.80465759 -25.18981512 83.93261344 -17.8125 77.375 C-15.53611285 75.01881724 -15.53611285 75.01881724 -14.4440918 72.24926758 C-12.625 69.875 -12.625 69.875 -9.34692383 69.30737305 C-8.00836521 69.30816237 -6.66963975 69.3362877 -5.33203125 69.38671875 C-4.62600266 69.39379349 -3.91997406 69.40086823 -3.19255066 69.40815735 C-0.93978416 69.4361247 1.31048648 69.49885666 3.5625 69.5625 C5.09045886 69.58758034 6.61845673 69.61039399 8.14648438 69.63085938 C11.89028306 69.68595756 15.63221859 69.77223714 19.375 69.875 C17.34277131 83.29071321 7.82128868 94.9471371 -2.796875 102.9921875 C-19.06303108 113.82131351 -36.74485518 117.35964851 -56.0703125 114.3359375 C-58.67332375 113.66108273 -61.11865046 112.84479354 -63.625 111.875 C-64.44613281 111.60816406 -65.26726562 111.34132813 -66.11328125 111.06640625 C-79.84631174 106.26091347 -92.91636317 94.81043786 -99.625 81.875 C-106.98740624 65.11826894 -110.3609801 45.49960744 -103.625 27.875 C-96.75525057 10.76912819 -84.43858678 -1.99683172 -67.69140625 -9.8359375 C-44.78716731 -19.46447107 -19.38509941 -14.86818304 0 0 Z " fill="#0C3973" transform="translate(169.625,471.125)"/>
<path d="M0 0 C7.92 0 15.84 0 24 0 C28.49924406 8.99848811 28.49924406 8.99848811 30.03613281 12.87915039 C30.5597364 14.1931633 30.5597364 14.1931633 31.09391785 15.53372192 C31.45995621 16.46232025 31.82599457 17.39091858 32.203125 18.34765625 C32.59804642 19.34054657 32.99296783 20.33343689 33.39985657 21.35641479 C34.2463561 23.48508163 35.09139211 25.61433094 35.93508911 27.74411011 C38.17121947 33.38734605 40.41945385 39.02575191 42.66796875 44.6640625 C43.11990097 45.79772751 43.57183319 46.93139252 44.03746033 48.09941101 C48.15070641 58.40432557 52.3387044 68.67748055 56.5625 78.9375 C56.88706177 79.72660767 57.21162354 80.51571533 57.54602051 81.32873535 C59.69499329 86.55346091 61.84711832 91.77688419 64 97 C66.17170374 102.2687801 68.33805262 107.53970907 70.5 112.8125 C70.96349854 113.93454834 71.42699707 115.05659668 71.90454102 116.21264648 C72.31760498 117.22141846 72.73066895 118.23019043 73.15625 119.26953125 C73.51525391 120.14198486 73.87425781 121.01443848 74.24414062 121.91333008 C75 124 75 124 75 126 C64.77 126 54.54 126 44 126 C42.68 122.431875 41.36 118.86375 40 115.1875 C39.58234375 114.06625732 39.1646875 112.94501465 38.734375 111.78979492 C38.40953125 110.90396729 38.0846875 110.01813965 37.75 109.10546875 C37.24726563 107.74651489 37.24726563 107.74651489 36.734375 106.36010742 C36 104 36 104 36 101 C20.49 101.33 4.98 101.66 -11 102 C-13.64 109.26 -16.28 116.52 -19 124 C-19.33 124.66 -19.66 125.32 -20 126 C-30.23 126 -40.46 126 -51 126 C-45.92288373 112.17849506 -40.39325625 98.56222875 -34.8125 84.9375 C-32.85165326 80.14111954 -30.89250705 75.34404538 -28.93359375 70.546875 C-28.43994324 69.33847458 -27.94629272 68.13007416 -27.43768311 66.88505554 C-24.09858004 58.70641003 -20.77820884 50.5203851 -17.47265625 42.328125 C-17.03800552 41.25103775 -16.6033548 40.1739505 -16.15553284 39.06422424 C-14.09849721 33.9648993 -12.04390037 28.8646018 -9.99145508 23.76342773 C-9.25215113 21.92951053 -8.51281382 20.09560678 -7.7734375 18.26171875 C-7.4483168 17.45152283 -7.12319611 16.6413269 -6.78822327 15.80657959 C-4.63727836 10.47599674 -2.33781606 5.26008613 0 0 Z M11 37 C9.00214106 42.51612497 7.00841671 48.03371958 5.01855469 53.55273438 C4.34066147 55.43107705 3.66162862 57.30900883 2.98144531 59.18652344 C2.00548105 61.88109532 1.03358871 64.57710532 0.0625 67.2734375 C-0.24373291 68.11619232 -0.54996582 68.95894714 -0.86547852 69.82723999 C-1.14576904 70.60789825 -1.42605957 71.38855652 -1.71484375 72.19287109 C-1.96355225 72.88126068 -2.21226074 73.56965027 -2.46850586 74.27890015 C-3.09835397 76.01827655 -3.09835397 76.01827655 -3 78 C6.9 78 16.8 78 27 78 C25.20250265 72.00834215 23.41093859 66.11422927 21.30078125 60.2421875 C21.0608696 59.56825958 20.82095795 58.89433167 20.57377625 58.19998169 C19.82234324 56.09081606 19.06749717 53.98289206 18.3125 51.875 C17.79599521 50.42716492 17.27971748 48.97924881 16.76367188 47.53125 C15.51172814 44.01989636 14.25672486 40.50964573 13 37 C12.34 37 11.68 37 11 37 Z " fill="#88B9C5" transform="translate(276,105)"/>
<path d="M0 0 C12.024375 -0.020625 24.04875 -0.04125 36.4375 -0.0625 C40.23950928 -0.071604 44.04151855 -0.08070801 47.95874023 -0.09008789 C52.5880127 -0.09460449 52.5880127 -0.09460449 54.75257874 -0.09544373 C56.27003777 -0.09698311 57.78749555 -0.10050792 59.3049469 -0.10557556 C61.59842059 -0.11285438 63.89181929 -0.11390737 66.18530273 -0.11352539 C68.12722755 -0.11685631 68.12722755 -0.11685631 70.10838318 -0.12025452 C73 0 73 0 74 1 C74.08737645 2.85369611 74.10698153 4.71067541 74.09765625 6.56640625 C74.09515869 7.57904541 74.09266113 8.59168457 74.09008789 9.63500977 C74.08098389 10.93108154 74.07187988 12.22715332 74.0625 13.5625 C74.041875 17.666875 74.02125 21.77125 74 26 C59.15 26 44.3 26 29 26 C29 33.92 29 41.84 29 50 C43.19 50 57.38 50 72 50 C72 58.58 72 67.16 72 76 C57.81 76 43.62 76 29 76 C29 83.92 29 91.84 29 100 C32.16464844 99.98839844 35.32929688 99.97679687 38.58984375 99.96484375 C41.64119364 99.95705406 44.69254244 99.9509768 47.74389648 99.94506836 C49.87118014 99.94002702 51.99846031 99.93319409 54.12573242 99.92456055 C57.17627826 99.91248621 60.22677845 99.90676986 63.27734375 99.90234375 C64.71327126 99.89460182 64.71327126 99.89460182 66.1782074 99.88670349 C67.05904495 99.88662796 67.93988251 99.88655243 68.84741211 99.88647461 C69.62684677 99.884254 70.40628143 99.88203339 71.20933533 99.87974548 C73 100 73 100 74 101 C74 109.25 74 117.5 74 126 C49.58 126 25.16 126 0 126 C0 84.42 0 42.84 0 0 Z " fill="#0C3973" transform="translate(204,458)"/>
<path d="M0 0 C12.024375 -0.020625 24.04875 -0.04125 36.4375 -0.0625 C40.23950928 -0.071604 44.04151855 -0.08070801 47.95874023 -0.09008789 C52.5880127 -0.09460449 52.5880127 -0.09460449 54.75257874 -0.09544373 C56.27003777 -0.09698311 57.78749555 -0.10050792 59.3049469 -0.10557556 C61.59842059 -0.11285438 63.89181929 -0.11390737 66.18530273 -0.11352539 C68.12722755 -0.11685631 68.12722755 -0.11685631 70.10838318 -0.12025452 C73 0 73 0 74 1 C74.08737645 2.85369611 74.10698153 4.71067541 74.09765625 6.56640625 C74.09515869 7.57904541 74.09266113 8.59168457 74.09008789 9.63500977 C74.08098389 10.93108154 74.07187988 12.22715332 74.0625 13.5625 C74.041875 17.666875 74.02125 21.77125 74 26 C59.15 26 44.3 26 29 26 C29 33.92 29 41.84 29 50 C43.19 50 57.38 50 72 50 C72 58.58 72 67.16 72 76 C57.81 76 43.62 76 29 76 C29 83.92 29 91.84 29 100 C32.16464844 99.98839844 35.32929687 99.97679687 38.58984375 99.96484375 C41.64119364 99.95705406 44.69254244 99.9509768 47.74389648 99.94506836 C49.87118014 99.94002702 51.99846031 99.93319409 54.12573242 99.92456055 C57.17627826 99.91248621 60.22677845 99.90676986 63.27734375 99.90234375 C64.71327126 99.89460182 64.71327126 99.89460182 66.1782074 99.88670349 C67.05904495 99.88662796 67.93988251 99.88655243 68.84741211 99.88647461 C69.62684677 99.884254 70.40628143 99.88203339 71.20933533 99.87974548 C73 100 73 100 74 101 C74 109.25 74 117.5 74 126 C49.58 126 25.16 126 0 126 C0 84.42 0 42.84 0 0 Z " fill="#88B8C5" transform="translate(577,105)"/>
<path d="M0 0 C24.09 0 48.18 0 73 0 C73 8.58 73 17.16 73 26 C58.15 26 43.3 26 28 26 C28 33.92 28 41.84 28 50 C42.19 50 56.38 50 71 50 C71 58.58 71 67.16 71 76 C56.81 76 42.62 76 28 76 C28 83.92 28 91.84 28 100 C42.85 100 57.7 100 73 100 C73 108.58 73 117.16 73 126 C48.91 126 24.82 126 0 126 C0 84.42 0 42.84 0 0 Z " fill="#0C3973" transform="translate(520,458)"/>
<path d="M0 0 C24.09 0 48.18 0 73 0 C73 8.58 73 17.16 73 26 C58.15 26 43.3 26 28 26 C28 33.92 28 41.84 28 50 C42.19 50 56.38 50 71 50 C71 58.58 71 67.16 71 76 C56.81 76 42.62 76 28 76 C28 83.92 28 91.84 28 100 C42.85 100 57.7 100 73 100 C73 108.58 73 117.16 73 126 C48.91 126 24.82 126 0 126 C0 84.42 0 42.84 0 0 Z " fill="#0C3973" transform="translate(1057,276)"/>
<path d="M0 0 C24.09 0 48.18 0 73 0 C73 8.58 73 17.16 73 26 C58.15 26 43.3 26 28 26 C28 33.92 28 41.84 28 50 C42.19 50 56.38 50 71 50 C71 58.58 71 67.16 71 76 C56.81 76 42.62 76 28 76 C28 83.92 28 91.84 28 100 C42.85 100 57.7 100 73 100 C73 108.58 73 117.16 73 126 C48.91 126 24.82 126 0 126 C0 84.42 0 42.84 0 0 Z " fill="#0C3973" transform="translate(701,276)"/>
<path d="M0 0 C33 0 66 0 100 0 C100 8.58 100 17.16 100 26 C88.45 26 76.9 26 65 26 C65 59 65 92 65 126 C55.43 126 45.86 126 36 126 C36 93 36 60 36 26 C24.12 26 12.24 26 0 26 C0 17.42 0 8.84 0 0 Z " fill="#87B9C5" transform="translate(661,105)"/>
<path d="M0 0 C33 0 66 0 100 0 C100 8.58 100 17.16 100 26 C88.12 26 76.24 26 64 26 C64 59 64 92 64 126 C54.76 126 45.52 126 36 126 C36 93 36 60 36 26 C24.12 26 12.24 26 0 26 C0 17.42 0 8.84 0 0 Z " fill="#0C3973" transform="translate(409,458)"/>
<path d="M0 0 C9.24 0 18.48 0 28 0 C28 33 28 66 28 100 C42.85 100 57.7 100 73 100 C73 108.58 73 117.16 73 126 C48.91 126 24.82 126 0 126 C0 84.42 0 42.84 0 0 Z " fill="#0C3973" transform="translate(611,276)"/>
</svg>